<svg width="18" height="18" viewBox="0 0 18 18" fill="none" xmlns="http://www.w3.org/2000/svg">
<path d="M15.9781 6.13447C15.9255 5.97355 15.7876 5.85862 15.6201 5.83234L10.6285 5.12302L8.38235 0.607622C8.30682 0.456562 8.15247 0.361328 7.98499 0.361328C7.81751 0.361328 7.66317 0.456562 7.58764 0.610906L5.37099 5.13944L0.379422 5.8816C0.211942 5.90787 0.0740175 6.02281 0.0214747 6.18373C-0.0310681 6.34464 0.0149069 6.52197 0.136412 6.63691L3.75858 10.1474L2.92118 15.1193C2.89162 15.2868 2.96059 15.4542 3.09851 15.5528C3.17404 15.6086 3.26599 15.6381 3.35794 15.6381C3.43019 15.6381 3.49915 15.6217 3.56483 15.5856L8.02111 13.2245L12.4905 15.5593C12.5562 15.5922 12.6252 15.6086 12.6941 15.6086C12.9371 15.6086 13.1375 15.4083 13.1375 15.1653C13.1375 15.1291 13.1342 15.0963 13.1243 15.0635L12.2607 10.1211L15.8598 6.59093C15.9879 6.47271 16.0306 6.29538 15.9781 6.13447Z" fill="#EEB256"/>
</svg>
